<svg version="1.2" baseProfile="tiny-ps" xmlns="http://www.w3.org/2000/svg" viewBox="0 0 19 22" width="19" height="22">
	<title>Layer 1</title>
	<style>
		tspan { white-space:pre }
		.shp0 { fill: #ffffff } 
	</style>
	<g id="Layer 1">
		<g id="&lt;Group&gt;">
			<g id="&lt;Group&gt;">
				<path id="&lt;Compound Path&gt;" fill-rule="evenodd" class="shp0" d="M12.41 11.06C12.42 11.2 12.43 11.35 12.44 11.52C12.48 12.1 12.53 12.87 12.61 13.19L13.36 13.65C14.82 13.96 16.11 14.46 17 15.13C17.85 15.77 18.35 16.57 18.35 17.53L18.35 17.53L18.35 20.52C18.35 20.89 18.2 21.22 17.96 21.46L17.96 21.46C17.72 21.7 17.39 21.85 17.02 21.85L1.8 21.85C1.44 21.85 1.11 21.7 0.87 21.46L0.87 21.46L0.86 21.45C0.62 21.21 0.47 20.88 0.47 20.52L0.47 17.53C0.47 16.57 0.98 15.77 1.83 15.14C2.72 14.46 4.01 13.97 5.47 13.67L6.23 13.18C6.3 12.85 6.34 12.08 6.37 11.5C6.38 11.32 6.39 11.16 6.4 11.04C6.28 10.91 6.16 10.78 6.05 10.64C5.6 10.06 5.23 9.39 4.97 8.68C4.72 8 4.58 7.29 4.58 6.59L4.58 6.55C4.58 6.54 4.58 6.53 4.58 6.51C4.58 6.42 4.58 6.34 4.58 6.26C4.58 5.89 4.57 5.6 4.57 5.31C4.51 2.3 4.47 0 9.41 0C14.36 0 14.32 2.3 14.26 5.31C14.26 5.6 14.25 5.89 14.25 6.26C14.25 6.29 14.25 6.33 14.25 6.4L14.25 6.51C14.25 6.53 14.25 6.54 14.25 6.55L14.25 6.55L14.25 6.59C14.25 7.29 14.11 8 13.86 8.68C13.6 9.39 13.22 10.06 12.77 10.64C12.66 10.79 12.54 10.93 12.41 11.06ZM6.78 10.8L6.78 10.8L6.78 10.81L6.79 10.81C7.12 11.16 7.49 11.46 7.87 11.68C8.37 11.97 8.89 12.13 9.41 12.13C9.94 12.13 10.46 11.97 10.96 11.68C11.5 11.37 12 10.91 12.43 10.37C12.85 9.83 13.2 9.2 13.45 8.53C13.62 8.06 13.74 7.56 13.78 7.07L13.42 5.96L13.42 5.95C13.36 5.73 13.33 5.52 13.31 5.32C13.3 5.13 13.29 4.93 13.29 4.74C13.29 4.51 13.28 4.29 13.24 4.09L13.24 4.07C13.21 3.9 13.15 3.73 13.04 3.59C12.69 3.13 11.77 3.35 10.88 3.57C10.36 3.69 9.85 3.82 9.41 3.82C9.04 3.82 8.56 3.71 8.05 3.59C7.13 3.38 6.12 3.15 5.79 3.59C5.68 3.74 5.62 3.91 5.58 4.09C5.55 4.29 5.54 4.51 5.54 4.74C5.53 4.93 5.53 5.13 5.51 5.32L5.51 5.32C5.5 5.52 5.47 5.73 5.41 5.95L5.4 5.96L5.4 5.96L5.04 7.06C5.09 7.56 5.21 8.06 5.38 8.53C5.63 9.2 5.98 9.83 6.4 10.37C6.52 10.52 6.65 10.67 6.78 10.8ZM6.82 11.45L6.81 11.52C6.78 12.09 6.74 12.83 6.67 13.22C6.71 13.26 6.75 13.29 6.79 13.32C7.11 13.54 7.41 13.73 7.7 13.87C8.36 14.21 8.96 14.34 9.54 14.3C10.05 14.27 10.55 14.12 11.07 13.87C11.37 13.72 11.69 13.54 12.02 13.33C12.07 13.3 12.12 13.27 12.17 13.24C12.09 12.84 12.04 12.11 12 11.55L12 11.47C11.74 11.7 11.46 11.9 11.18 12.06C10.62 12.39 10.02 12.58 9.41 12.58C8.81 12.58 8.21 12.39 7.65 12.06C7.36 11.89 7.08 11.69 6.82 11.45ZM13.81 5.69L13.82 5.3C13.87 2.55 13.91 0.44 9.41 0.44C4.92 0.44 4.96 2.55 5.01 5.3L5.02 5.69C5.04 5.55 5.06 5.41 5.07 5.28C5.09 5.08 5.09 4.9 5.1 4.73C5.1 4.48 5.11 4.24 5.15 4.01C5.19 3.77 5.28 3.53 5.44 3.32C5.94 2.66 7.1 2.92 8.15 3.16C8.63 3.27 9.09 3.38 9.41 3.38C9.8 3.38 10.29 3.26 10.78 3.14C11.81 2.89 12.86 2.63 13.39 3.32C13.55 3.53 13.63 3.75 13.68 3.99L13.68 4.01C13.72 4.24 13.73 4.48 13.73 4.73C13.73 4.9 13.74 5.08 13.76 5.28C13.77 5.41 13.78 5.55 13.81 5.69ZM6.41 13.58L5.96 13.88L5.86 13.95C6.14 14.39 6.6 14.74 7.13 15C7.85 15.35 8.69 15.51 9.41 15.51C10.17 15.51 10.93 15.31 11.58 15C12.17 14.71 12.67 14.33 12.97 13.93L12.86 13.86L12.43 13.6C12.28 13.69 12.14 13.78 11.99 13.86C11.15 14.37 10.38 14.7 9.56 14.74C8.72 14.79 7.84 14.54 6.83 13.87C6.69 13.78 6.55 13.69 6.41 13.58ZM5.45 14.12C4.09 14.42 2.91 14.87 2.09 15.49C1.36 16.04 0.92 16.72 0.92 17.53L0.92 20.52C0.92 20.76 1.02 20.99 1.18 21.15L1.18 21.15C1.34 21.31 1.56 21.41 1.8 21.41L17.02 21.41C17.27 21.41 17.49 21.31 17.65 21.15C17.81 20.99 17.91 20.76 17.91 20.52L17.91 17.53C17.91 16.72 17.47 16.04 16.74 15.48C15.92 14.86 14.73 14.41 13.38 14.11C13.04 14.6 12.46 15.06 11.77 15.4C11.07 15.74 10.24 15.96 9.41 15.96C8.63 15.96 7.72 15.77 6.94 15.4C6.32 15.1 5.78 14.68 5.45 14.12Z" />
			</g>
		</g>
	</g>
</svg>