<svg version="1.2" baseProfile="tiny-ps" xmlns="http://www.w3.org/2000/svg" viewBox="0 0 17 20" width="17" height="20">
	<title>Layer 1</title>
	<style>
		tspan { white-space:pre }
		.shp0 { fill: #ffffff } 
	</style>
	<g id="Layer 1">
		<g id="&lt;Group&gt;">
			<g id="&lt;Group&gt;">
				<path id="&lt;Compound Path&gt;" fill-rule="evenodd" class="shp0" d="M8.61 19.89C7.98 19.15 7.27 18.37 6.55 17.57C5.02 15.87 3.39 14.07 2.27 12.49L2.27 12.49C1.8 11.8 1.43 11.07 1.19 10.3C0.95 9.54 0.82 8.74 0.82 7.91C0.82 5.72 1.71 3.73 3.15 2.29C4.59 0.85 6.58 -0.04 8.77 -0.04C10.97 -0.04 12.96 0.85 14.39 2.29C15.83 3.73 16.72 5.72 16.72 7.91L16.72 7.91C16.72 8.74 16.6 9.54 16.35 10.31C16.11 11.08 15.75 11.81 15.27 12.49C14.16 14.07 12.53 15.87 10.99 17.57C10.27 18.37 9.57 19.15 8.94 19.89C8.86 19.98 8.72 19.99 8.63 19.91C8.62 19.9 8.61 19.89 8.61 19.89ZM6.87 17.28C7.54 18.03 8.2 18.75 8.77 19.42C9.35 18.75 10 18.03 10.67 17.28C12.2 15.6 13.81 13.81 14.92 12.24C15.37 11.6 15.71 10.91 15.94 10.18C16.17 9.45 16.29 8.69 16.29 7.91L16.29 7.91C16.29 5.84 15.45 3.96 14.09 2.6C12.73 1.24 10.85 0.4 8.77 0.4C6.7 0.4 4.82 1.24 3.46 2.6C2.1 3.96 1.26 5.84 1.26 7.91C1.26 8.69 1.38 9.45 1.6 10.17C1.83 10.9 2.18 11.59 2.63 12.24C3.73 13.81 5.35 15.6 6.87 17.28ZM8.77 3.96C9.87 3.96 10.85 4.4 11.57 5.11C12.29 5.83 12.73 6.82 12.73 7.91C12.73 9 12.29 9.99 11.57 10.71C10.85 11.43 9.87 11.87 8.77 11.87C7.68 11.87 6.69 11.43 5.97 10.71C5.26 9.99 4.82 9 4.82 7.91L4.82 7.91C4.82 6.82 5.26 5.83 5.97 5.11C6.69 4.4 7.68 3.96 8.77 3.96ZM8.77 4.39C7.8 4.39 6.92 4.78 6.28 5.42C5.64 6.06 5.25 6.94 5.25 7.91L5.25 7.91C5.25 8.88 5.64 9.77 6.28 10.4C6.92 11.04 7.8 11.43 8.77 11.43C9.74 11.43 10.63 11.04 11.26 10.4C11.9 9.77 12.3 8.88 12.3 7.91C12.3 6.94 11.9 6.06 11.26 5.42C10.63 4.78 9.74 4.39 8.77 4.39Z" />
			</g>
		</g>
	</g>
</svg>