<svg version="1.2" baseProfile="tiny-ps" xmlns="http://www.w3.org/2000/svg" viewBox="0 0 25 21" width="25" height="21">
	<title>Layer 1</title>
	<style>
		tspan { white-space:pre }
		.shp0 { fill: #ffffff } 
	</style>
	<g id="Layer 1">
		<g id="&lt;Group&gt;">
			<g id="&lt;Group&gt;">
				<path id="&lt;Compound Path&gt;" fill-rule="evenodd" class="shp0" d="M0.43 0.33C0.43 0.33 0.43 0.33 0.43 0.32C0.43 0.32 0.43 0.31 0.43 0.31C0.43 0.3 0.43 0.3 0.43 0.29C0.43 0.29 0.43 0.29 0.43 0.29C0.43 0.29 0.44 0.29 0.44 0.29C0.44 0.29 0.44 0.28 0.44 0.28C0.44 0.28 0.44 0.27 0.45 0.27C0.45 0.27 0.45 0.27 0.45 0.26C0.45 0.26 0.45 0.26 0.46 0.26C0.46 0.26 0.46 0.26 0.46 0.26C0.46 0.25 0.46 0.25 0.46 0.25C0.46 0.25 0.46 0.25 0.46 0.25C0.46 0.25 0.47 0.25 0.47 0.24C0.47 0.24 0.48 0.24 0.48 0.23C0.48 0.23 0.48 0.23 0.49 0.23C0.49 0.23 0.49 0.23 0.49 0.23C0.49 0.23 0.49 0.23 0.5 0.22C0.5 0.22 0.5 0.22 0.51 0.22C0.51 0.22 0.52 0.22 0.53 0.22C0.53 0.21 0.54 0.21 0.54 0.21C0.55 0.21 0.55 0.21 0.55 0.21C0.56 0.21 0.56 0.21 0.56 0.21C0.56 0.21 0.56 0.21 0.57 0.21C0.57 0.21 0.57 0.21 0.57 0.21C0.58 0.22 0.58 0.22 0.59 0.22C0.59 0.22 0.59 0.22 0.6 0.22C0.6 0.22 0.6 0.22 0.61 0.22L24.91 12.47C24.96 12.49 24.99 12.55 24.98 12.6C24.96 12.66 24.91 12.7 24.86 12.7L17.26 12.7L16.44 20.71C16.44 20.72 16.44 20.72 16.44 20.73C16.43 20.73 16.43 20.74 16.43 20.75C16.43 20.76 16.42 20.76 16.42 20.77C16.41 20.77 16.41 20.78 16.41 20.78C16.4 20.79 16.39 20.79 16.39 20.8C16.38 20.8 16.38 20.8 16.37 20.81C16.37 20.81 16.37 20.81 16.37 20.81C16.36 20.81 16.34 20.82 16.33 20.82C16.33 20.82 16.32 20.82 16.32 20.82L16.32 20.82C16.32 20.82 16.32 20.82 16.32 20.82C16.29 20.82 16.27 20.81 16.25 20.8C16.25 20.79 16.24 20.79 16.24 20.79C16.23 20.78 16.23 20.78 16.22 20.77L11.95 15.25L6.46 19.38C6.44 19.4 6.41 19.41 6.39 19.41C6.38 19.41 6.36 19.41 6.35 19.4C6.31 19.39 6.28 19.36 6.27 19.32L0.43 0.37C0.43 0.37 0.43 0.37 0.43 0.36C0.43 0.36 0.43 0.35 0.43 0.35C0.43 0.35 0.43 0.34 0.43 0.34C0.43 0.34 0.43 0.34 0.43 0.33ZM14.35 13.34C14.35 13.34 14.35 13.34 14.35 13.35L16.26 20.05L17.02 12.63L2.04 1.59L14.32 13.29C14.33 13.3 14.34 13.32 14.35 13.34ZM1.79 1.1L13.29 9.58L17.19 12.45L24.34 12.45L1.79 1.1ZM16.03 20.12L14.16 13.59L12.14 15.11L16.03 20.12ZM6.45 19.08L11.9 14.99C11.9 14.99 11.9 14.99 11.9 14.99C11.9 14.99 11.9 14.99 11.9 14.99L14.04 13.37L7.77 7.39L0.81 0.75L6.45 19.08Z" />
			</g>
		</g>
	</g>
</svg>