<svg version="1.2" baseProfile="tiny-ps" xmlns="http://www.w3.org/2000/svg" viewBox="0 0 29 19" width="29" height="19">
	<title>Layer 1</title>
	<style>
		tspan { white-space:pre }
		.shp0 { fill: #ffffff } 
	</style>
	<g id="Layer 1">
		<g id="&lt;Group&gt;">
			<g id="&lt;Group&gt;">
				<path id="&lt;Compound Path&gt;" fill-rule="evenodd" class="shp0" d="M0.64 10.53L6.45 6.04C6.49 6.01 6.54 6.01 6.58 6.03L8.57 7.17L9.22 3.91C9.22 3.9 9.22 3.9 9.22 3.89C9.23 3.88 9.23 3.87 9.24 3.86C9.24 3.86 9.25 3.85 9.26 3.84C9.26 3.84 9.26 3.83 9.26 3.83L14.24 0.03C14.29 -0.01 14.37 0 14.41 0.06L28.79 18.8C28.79 18.8 28.79 18.81 28.79 18.81C28.8 18.82 28.8 18.82 28.8 18.83C28.8 18.83 28.81 18.84 28.81 18.84C28.81 18.84 28.81 18.85 28.81 18.85C28.81 18.86 28.81 18.86 28.81 18.87C28.81 18.87 28.81 18.88 28.81 18.88C28.81 18.89 28.81 18.89 28.81 18.89C28.81 18.9 28.81 18.91 28.81 18.91C28.8 18.92 28.81 18.92 28.8 18.93C28.8 18.93 28.8 18.93 28.8 18.93C28.8 18.93 28.8 18.93 28.8 18.94C28.79 18.94 28.79 18.94 28.79 18.95C28.79 18.95 28.79 18.95 28.79 18.95C28.78 18.95 28.78 18.96 28.78 18.96C28.78 18.96 28.78 18.96 28.78 18.96C28.78 18.97 28.77 18.97 28.77 18.97C28.76 18.98 28.75 18.98 28.74 18.99C28.74 18.99 28.73 18.99 28.73 18.99C28.73 18.99 28.72 18.99 28.72 19C28.7 19 28.68 19 28.67 19L28.67 19C28.66 19 28.66 19 28.66 19L0.68 10.74C0.64 10.73 0.6 10.69 0.6 10.65C0.59 10.6 0.61 10.55 0.64 10.53ZM27.19 17.87L9.42 4.15L8.79 7.3L27.19 17.87ZM14.29 0.3L9.54 3.93L22.75 14.13L28.02 18.2L14.29 0.3ZM27.72 18.46L8.59 7.47L6.53 6.29L0.98 10.57L27.72 18.46Z" />
			</g>
		</g>
	</g>
</svg>