<svg version="1.2" baseProfile="tiny-ps" xmlns="http://www.w3.org/2000/svg" viewBox="0 0 22 20" width="22" height="20">
	<title>Layer 1</title>
	<style>
		tspan { white-space:pre }
		.shp0 { fill: #ffffff } 
	</style>
	<g id="Layer 1">
		<g id="&lt;Group&gt;">
			<g id="&lt;Group&gt;">
				<g id="&lt;Group&gt;">
					<g id="&lt;Group&gt;">
						<g id="&lt;Group&gt;">
							<path id="&lt;Path&gt;" class="shp0" d="M21.38 0C19.23 1.2 17.31 2.59 15.64 4.01C13.97 5.42 12.54 6.86 11.38 8.16C10.22 9.47 9.31 10.63 8.69 11.5C8.06 12.36 7.71 12.93 7.64 13.03C7.61 12.98 7.46 12.7 7.22 12.3C6.98 11.9 6.65 11.38 6.28 10.85C5.92 10.32 5.51 9.77 5.09 9.32C4.68 8.88 4.27 8.52 3.89 8.38C3.83 8.35 3.77 8.33 3.7 8.31C3.64 8.29 3.58 8.28 3.52 8.27C3.45 8.25 3.39 8.24 3.33 8.24C3.26 8.23 3.2 8.23 3.14 8.22C2.83 8.22 2.53 8.27 2.25 8.37C1.97 8.46 1.71 8.6 1.47 8.76C1.24 8.93 1.03 9.11 0.87 9.29C0.7 9.48 0.57 9.66 0.5 9.83C0.94 9.93 1.46 10.41 1.99 11.12C2.53 11.82 3.08 12.74 3.6 13.73C4.12 14.71 4.61 15.76 5.02 16.72C5.42 17.68 5.75 18.55 5.93 19.17C6.12 18.97 6.43 18.71 6.77 18.44C7.12 18.16 7.51 17.88 7.88 17.61C8.25 17.35 8.61 17.11 8.87 16.93C9.14 16.75 9.33 16.63 9.36 16.61C10.99 13.47 12.58 10.93 14.05 8.88C15.53 6.82 16.89 5.26 18.06 4.08C19.23 2.9 20.2 2.12 20.9 1.62C21.61 1.11 22.04 0.9 22.11 0.86L21.38 0Z" />
						</g>
					</g>
				</g>
			</g>
		</g>
	</g>
</svg>